<mxfile host="app.diagrams.net" modified="2024-07-28T06:45:02.928Z" agent="Mozilla/5.0 (Macintosh; Intel Mac OS X 10_15_7) AppleWebKit/537.36 (KHTML, like Gecko) Chrome/126.0.0.0 Safari/537.36" etag="1e8kpCMMcpZCu1gMKSNM" version="24.4.9" type="github">
  <diagram name="第 1 页" id="PswtIXLjGlU0Myjr46Bc">
    <mxGraphModel dx="1306" dy="730" grid="1" gridSize="10" guides="1" tooltips="1" connect="1" arrows="1" fold="1" page="1" pageScale="1" pageWidth="827" pageHeight="1169" math="0" shadow="0">
      <root>
        <mxCell id="0" />
        <mxCell id="1" parent="0" />
        <mxCell id="wxgzWujj8RXNi9KZquP8-2" value="逆向思考：如果要部署某个新环境，或者在现有生产紧急解决一个小BUG，如果只有一个master，我们需要各种找tag或commit，影响生产，那么生产环境要有一个单独分支，release" style="text;html=1;align=center;verticalAlign=middle;resizable=0;points=[];autosize=1;strokeColor=none;fillColor=none;" vertex="1" parent="1">
          <mxGeometry x="30" y="50" width="980" height="30" as="geometry" />
        </mxCell>
        <mxCell id="wxgzWujj8RXNi9KZquP8-3" value="某个需求提测，其对应一个commit，但是该服务改动频繁，又有新需求，继续commit，测试过程发现问题，现在master修复，单分支无法解决，因此提测分支unstable，然后cherry-pick的方式到unstable" style="text;html=1;align=center;verticalAlign=middle;resizable=0;points=[];autosize=1;strokeColor=none;fillColor=none;" vertex="1" parent="1">
          <mxGeometry x="30" y="100" width="1090" height="30" as="geometry" />
        </mxCell>
        <mxCell id="wxgzWujj8RXNi9KZquP8-4" value="紧急发布，直接改release，然后反向cherry-pick到unstalb和master" style="text;html=1;align=center;verticalAlign=middle;resizable=0;points=[];autosize=1;strokeColor=none;fillColor=none;" vertex="1" parent="1">
          <mxGeometry x="30" y="150" width="380" height="30" as="geometry" />
        </mxCell>
        <mxCell id="wxgzWujj8RXNi9KZquP8-5" value="&lt;font face=&quot;Comic Sans MS&quot;&gt;master&lt;/font&gt;" style="rounded=1;whiteSpace=wrap;html=1;fillStyle=hatch;fillColor=#ffe6cc;strokeColor=#d79b00;" vertex="1" parent="1">
          <mxGeometry x="375" y="270" width="50" height="200" as="geometry" />
        </mxCell>
        <mxCell id="wxgzWujj8RXNi9KZquP8-6" value="&lt;font face=&quot;Comic Sans MS&quot;&gt;unstable&lt;/font&gt;" style="rounded=1;whiteSpace=wrap;html=1;fillStyle=hatch;fillColor=#ffe6cc;strokeColor=#d79b00;" vertex="1" parent="1">
          <mxGeometry x="495" y="270" width="50" height="200" as="geometry" />
        </mxCell>
        <mxCell id="wxgzWujj8RXNi9KZquP8-7" value="&lt;font face=&quot;Comic Sans MS&quot;&gt;release&lt;/font&gt;" style="rounded=1;whiteSpace=wrap;html=1;fillStyle=hatch;fillColor=#ffe6cc;strokeColor=#d79b00;" vertex="1" parent="1">
          <mxGeometry x="615" y="270" width="50" height="200" as="geometry" />
        </mxCell>
        <mxCell id="wxgzWujj8RXNi9KZquP8-8" value="同一个服务参与多个需求提测重叠，开发者和测试沟通，因为只有一个提测环境" style="text;html=1;align=center;verticalAlign=middle;resizable=0;points=[];autosize=1;strokeColor=none;fillColor=none;" vertex="1" parent="1">
          <mxGeometry x="30" y="200" width="440" height="30" as="geometry" />
        </mxCell>
      </root>
    </mxGraphModel>
  </diagram>
</mxfile>
